# xmcd
#
# Track frame offsets: 
#        150
#        15809
#        29288
#        43411
#        55289
#        69507
#        82141
#        97233
#        108218
#        122955
#        136604
#        150155
#        163780
#        176387
#        188944
#        202476
#        216310
#        230173
#        245536
#        259816
#        274133
#        287378
#        301081
#        314871
#
# Disc length: 4371 seconds
#
# Revision: 0
# Processed by: cddbd v1.5.2PL0 Copyright (c) Steve Scherf et al.
# Submitted via: ExactAudioCopyFreeDBPlugin 1.0
#
DISCID=63111118
DTITLE=Various Artist - Clarence Williams and the Blues Singers Vol. 1 (1923-
DTITLE=1928)
DYEAR=1995
DGENRE=Blues
TTITLE0=Rosetta Crawford - Down on the Levee Blues
TTITLE1=Rosetta Crawford - Lonesome Woman's Blues
TTITLE2=Irene Scruggs - Everybody's Blues
TTITLE3=Irene Scruggs - Why He Left Me I Don't Know
TTITLE4=Irene Scruggs - Cruel Papa but a Good Man to Have Around
TTITLE5=Irene Scruggs - My Daddy's Calling Me
TTITLE6=Dora Carr - Bring It On Home Blues
TTITLE7=Dora Carr - I'm Gonna Steal Somebody's Man
TTITLE8=E. L. Coleman - Blue Feelin' Blues
TTITLE9=Billy and Mary Mack - Oh! Me Oh! My Blues
TTITLE10=Billy and Mary Mack - You've Got to Quit Your Low Down Ways
TTITLE11=Billy and Mary Mack - Fetch It When You Come
TTITLE12=Billy and Mary Mack - How Could My Good Man Turn His Back on Me
TTITLE12=Now
TTITLE13=Billy and Mary Mack - You Don't Want Much
TTITLE14=Elvira Johnson - How Could I Be Blue?
TTITLE15=Elvira Johnson - Numbers on the Brain
TTITLE16=Elizabeth Johnson - Empty Bed Blues -- Part 1
TTITLE17=Elizabeth Johnson - Empty Bed Blues -- Part 2
TTITLE18=Anna Bell - Hopeless Blues
TTITLE19=Anna Bell - Every Woman Blues
TTITLE20=Anna Bell - Kitchen Woman Blues
TTITLE21=Anna Bell - Lock Step Blues
TTITLE22=Anna Bell - Shake It, Black Bottom
TTITLE23=Anna Bell - I Don't Care Who Gets What I Don't Want
EXTD=
EXTT0=
EXTT1=
EXTT2=
EXTT3=
EXTT4=
EXTT5=
EXTT6=
EXTT7=
EXTT8=
EXTT9=
EXTT10=
EXTT11=
EXTT12=
EXTT13=
EXTT14=
EXTT15=
EXTT16=
EXTT17=
EXTT18=
EXTT19=
EXTT20=
EXTT21=
EXTT22=
EXTT23=
PLAYORDER=
